<svg width="420" height="579" viewBox="0 0 420 579" fill="none" xmlns="http://www.w3.org/2000/svg">
<mask id="mask0_37_1305" style="mask-type:alpha" maskUnits="userSpaceOnUse" x="0" y="0" width="420" height="579">
<rect width="420" height="579" rx="50" fill="white"/>
</mask>
<g mask="url(#mask0_37_1305)">
<path fill-rule="evenodd" clip-rule="evenodd" d="M-8.9714 285.856C-12.2321 293.757 -15.3253 313.675 -16.3998 333.69C-18.6335 375.317 -9.25814 410.044 10.8268 434.552C15.5435 440.308 19.8788 444.171 26.2649 448.303C29.8682 450.637 30.2821 450.85 34.575 452.559C39.6632 454.589 44.3001 455.935 49.5779 456.915C55.2342 457.963 63.9057 459.671 65.2613 459.997C68.6405 460.814 69.6337 462.145 71.5966 468.484C74.8781 479.077 75.2454 487.078 73.0574 500.325C71.9608 506.958 70.5446 512.366 69.2316 514.923C68.0399 517.245 66.4674 517.968 62.6589 517.942C56.6872 517.901 46.1741 520.716 40.7544 523.807C37.3198 525.766 34.0902 529.552 32.0587 533.999C31.2133 535.851 31.0875 536.386 31.054 538.297C31.032 539.499 31.3277 542.429 31.709 544.811C33.0759 553.349 33.1909 556.541 32.257 559.889C31.2006 563.673 28.749 565.801 21.1361 569.536C8.0092 575.982 5.34312 578.643 5.3023 585.347C5.29408 586.622 5.88078 591.025 6.64375 595.409C7.52457 600.468 6.74234 605.675 4.41435 610.251L-15.0563 648.526C-27.7368 673.453 -52.0551 721.172 -69.0968 754.568C-131.554 876.966 -156.045 925.41 -168.504 951.196C-176.328 967.388 -176.169 966.958 -176.985 974.108C-177.23 976.242 -177.169 976.62 -175.929 980.597C-174.488 985.217 -173.323 987.622 -171.792 989.125C-169.407 991.471 -162.583 994.987 -159.287 995.568C-157.396 995.903 -154.877 995.554 -150.958 994.41C-145.246 992.748 -142.797 991.386 -139.82 988.223C-135.54 983.677 -132.488 978.258 -110.642 936.423C-90.5988 898.041 -88.288 893.874 -85.3553 890.824C-85.0277 890.485 -84.5855 890.222 -84.3742 890.243C-81.599 890.539 -59.7297 900.882 -24.1472 918.73C21.5935 941.671 29.1882 945.041 35.6686 945.252C38.4676 945.341 40.546 944.523 43.9984 941.965C47.3276 939.501 48.7907 938.025 50.2096 935.702C52.7822 931.49 53.1137 926.373 51.1888 920.553C49.2999 914.839 47.8044 913.403 36.0267 906.02C24.5249 898.81 23.2272 897.493 20.5619 890.363C17.7303 882.775 17.5048 878.448 19.5682 871.196C21.6415 863.91 24.8771 858.856 30.0012 854.898C33.5782 852.137 36.6685 850.671 42.1728 849.131C45.7709 848.124 47.3482 847.964 49.5441 848.39C52.5354 848.967 53.8282 849.458 64.6733 854.1C75.2769 858.643 81.5106 859.191 86.9563 856.057C89.7857 854.43 93.4713 851.081 95.4994 848.292C96.4757 846.951 96.9947 844.76 97.1026 841.526C97.3055 835.427 95.7692 829.329 93.0986 825.631C90.6537 822.247 86.1763 819.659 46.5878 798.736C7.42944 778.047 0.0993673 774.121 -7.11354 770.001C-15.4731 765.225 -18.2482 763.055 -18.2428 761.301C-18.2426 760.837 -17.8088 759.255 -17.2796 757.788C-14.9234 751.257 -11.868 745.12 18.1491 686.629L44.1906 635.886C46.5248 631.337 50.2181 627.63 54.757 625.278C67.5156 618.664 71.22 615.5 72.4586 610.153C73.2282 606.83 73.0331 604.167 71.471 596.606C70.663 592.703 70.4837 590.227 70.7671 586.868C70.9104 585.167 72.5301 581.717 73.9383 580.112C75.5964 578.224 78.7906 575.874 82.8269 573.577C90.3587 569.292 94.0426 565.81 96.0794 561.054C97.9534 556.679 97.9141 552.12 95.9515 545.974C94.8062 542.387 93.1663 538.993 89.2449 532.083C87.5222 529.048 86.0488 526.375 85.9684 526.145C85.859 525.83 86.053 525.413 86.7573 524.453C87.2726 523.75 88.4278 522.163 89.3249 520.926C90.2221 519.688 91.2363 518.353 91.5761 517.963C97.7514 510.871 102.156 506.915 109.18 502.153C111.331 500.694 116.42 497.879 118.68 496.897C123.713 494.71 129.663 493.198 132.72 493.328C134.056 493.385 134.513 493.528 135.548 494.206C136.699 494.961 139.559 497.557 143.211 501.16C144.06 502.001 145.858 503.729 147.206 505.002C160.732 517.798 164.858 520.8 173.23 523.952C192.406 531.174 225.346 527.423 249.469 515.275C268.097 505.894 289.119 489.817 305.464 472.447C311.717 465.803 319.178 456.753 321.18 453.386C323.116 450.13 322.902 449.717 318.474 448.128C314.868 446.831 311.693 445.926 303.834 443.954C285.174 439.263 254.521 432.832 245.448 431.701C226.858 429.382 209.419 429.887 195.006 433.159C191.708 433.908 185.231 435.986 182.113 437.297C177.167 439.375 172.784 442.085 168.481 445.726C163.475 449.963 162.708 451.106 154.789 466.118L150.323 474.583C149.012 477.067 146.559 478.743 143.768 479.059C138.365 479.671 136.579 479.68 132.987 479.113C129.031 478.489 126.207 477.591 122.739 475.843C119.909 474.42 119.669 474.252 118.707 472.994C117.474 471.382 115.829 466.622 115.79 464.561C115.776 463.791 116.088 462.072 116.484 460.739C117.147 458.504 118.036 456.701 127.645 438.082C138.612 416.833 139.884 414.584 144.15 408.913C147.349 404.66 152.711 399.441 157.585 395.836C162.948 391.87 168.455 389.016 175.227 386.692C181.707 384.471 185.723 383.6 195.888 382.21L199.241 381.751C201.247 381.476 203.29 381.826 205.09 382.754C208.241 384.377 224.207 392.157 237.006 398.309C258.381 408.578 263.435 409.495 280.214 406.158C293.19 403.573 310.739 395.35 327.798 383.859C333.991 379.686 338.017 376.704 345.718 370.583C348.785 368.146 356.033 361.685 359.635 358.179C365.607 352.366 369.289 348.358 377.351 338.9C379.199 336.732 380.848 334.362 381.815 332.486C382.721 330.727 382.848 330.31 382.66 329.714C382.261 328.444 380.951 328.036 366.962 324.828C358.966 322.995 344.943 319.998 343.466 319.806C343.09 319.757 341.524 319.489 339.985 319.209C334.334 318.185 325.442 316.807 323.655 316.683C323.346 316.659 321.921 316.499 320.487 316.326C301.324 313.983 282.009 314.379 267.469 317.41C258.39 319.304 241.229 325.419 235.081 328.95C229.715 332.034 223.621 337.582 219.33 343.288C215.681 348.141 213.772 351.648 208.496 363.199C206.62 367.306 205.768 368.251 203.174 369.097C198.484 370.627 191.921 369.957 178.183 366.542C175.058 365.764 172.149 365.071 171.721 365C171.293 364.928 170.823 364.804 170.674 364.727C170.371 364.571 169.221 359.759 169.027 357.846C168.723 354.802 170.606 350.454 177.992 337.147C187.781 319.514 194.27 310.047 201.182 303.321C203.525 301.041 208.453 297.451 211.218 296.007C216.572 293.214 223.743 291.214 231.796 290.272C238.681 289.465 246.282 289.732 255.238 291.091C256.576 291.294 257.926 291.473 258.24 291.486C258.822 291.514 263.418 292.642 265.225 293.201C265.778 293.372 270.437 294.384 275.578 295.451C280.719 296.518 285.301 297.503 285.761 297.64C287.237 298.076 289.979 297.539 295.751 295.681C305.961 292.398 315.257 288.207 326.836 281.67C337.977 275.38 346.841 269.445 356.402 261.872C363.327 256.389 372.455 246.993 374.904 242.827C375.95 241.049 375.968 240.979 375.605 240.17C374.765 238.309 372.077 237.642 354.941 235.034C349.589 234.222 343.798 233.371 342.068 233.15C340.34 232.926 338.399 232.67 337.755 232.58C337.111 232.489 334.556 232.228 332.077 232.003C318.447 230.758 308.917 231.057 297.368 233.08C280.807 235.981 272.329 239.845 265.386 247.65C262.193 251.241 261.224 252.717 253.897 265.148C249.373 272.823 247.184 274.411 239.917 275.293C233.47 276.077 222.705 276.199 218.378 275.543C215.962 275.178 215.092 274.686 214.383 273.3C212.896 270.383 215.712 262.879 223.664 248.567C229.923 237.303 233.308 232.195 237.419 227.812C241.361 223.609 244.894 221.355 250.193 219.66C256.198 217.738 260.807 217.331 274.658 217.484C289.315 217.649 293.19 217.337 298.53 215.567C305.915 213.12 314.989 207.001 323.524 198.715C331.936 190.55 339.085 182.413 340.186 179.752C340.603 178.744 338.496 177.418 335.209 176.609C332.007 175.822 327.435 175.04 326.637 175.145C326.465 175.166 325.708 175.109 324.955 175.015C322.895 174.76 315.744 174.602 312.63 174.736C306.713 175 302.57 175.66 298.157 177.054C290.663 179.418 286.08 182.55 272.453 194.622C266.96 199.489 264.524 200.657 260.793 200.215C259.098 200.016 251.402 197.905 250.286 197.334C249.91 197.14 250.167 196.575 254.168 188.81C256.524 184.237 259.153 179.397 260.007 178.058C265.138 170.016 270.053 165.854 277.441 163.3C280.656 162.187 287.383 160.742 290.396 160.516C292.762 160.337 296.598 159.409 302.711 157.538C311.02 154.989 315.747 152.632 321.012 148.414C326.056 144.371 332.773 136.143 335.159 131.086C336.096 129.102 336.241 128.59 336.121 127.721C335.809 125.493 333.329 124.294 326.964 123.301C314.965 121.429 309.142 123.564 284.538 138.852C281.143 140.962 277.998 142.474 277.861 142.066C277.829 141.962 278.943 139.491 280.339 136.57C282.86 131.297 282.886 131.253 284.231 130.045C288.38 126.317 293.275 123.384 296.003 122.993C299.4 122.505 309.536 119.158 315.992 116.395C325.98 112.118 331.721 105.174 332.923 95.9185C333.961 87.9105 332.008 67.167 329.007 54.357C327.627 48.4675 325.649 40.9992 325.439 40.8912C325.274 40.806 314.152 45.4281 308.523 47.9211C287.343 57.3056 278.638 62.603 273.713 69.1037C272.028 71.3288 269.857 75.5593 268.9 78.4833C266.849 84.743 266.852 90.6855 268.908 97.6812C269.967 101.294 270.555 102.674 272.695 106.603C273.496 108.076 274.478 110.295 274.878 111.531C275.493 113.433 275.588 114.38 275.506 117.655C275.361 123.481 274.305 129.092 272.613 133.04C271.899 134.705 271.626 135.103 270.629 135.93C266.823 139.086 264.934 136.141 263.772 125.247C263.518 122.847 263.139 118.082 262.933 114.655C262.047 100.004 260.674 93.6665 257.392 89.1013C255.183 86.0314 250.66 82.9208 248.553 83.0224C246.941 83.0987 245.488 84.3876 243.963 87.0976C242.527 89.6481 240.434 94.9485 239.267 98.9911C236.67 107.988 237.167 117.309 240.687 125.545C241.447 127.326 243.233 131.633 244.653 135.12C246.073 138.607 247.689 142.506 248.24 143.789C250.305 148.573 252.098 156.191 252.424 161.573C252.776 167.349 251.546 173.111 248.279 180.992C245.997 186.497 242.878 193.657 242.74 193.704C242.431 193.812 234.91 187.54 233.08 185.651C228.293 180.714 227.064 176.558 227.285 166.056C227.606 150.888 227.262 146.654 225.167 139.909C223.058 133.119 220.709 129.131 212.488 118.398C209.269 114.198 207.691 112.285 205.868 110.382C202.63 107.005 201.742 106.951 200.229 110.039C197.374 115.868 193.411 136.344 193.221 146.244C192.97 159.302 199.914 176.251 209.807 186.724C215.823 193.096 217.978 196.901 220.719 206.016C224.641 219.042 223.873 224.302 215.035 244.962C211.547 253.114 207.5 261.074 205.589 263.538C203.843 265.788 202.403 266.737 200.838 266.663C199.328 266.595 198.597 266.213 196.644 264.484C194.212 262.329 190.983 258.496 187.434 253.562C182.053 246.075 178.834 239.952 178.794 237.136C178.764 234.974 179.309 233.529 183.015 225.962C187.758 216.279 189.526 211.424 190.507 205.389C191.754 197.715 190.768 189.948 187.563 182.154C183.277 171.745 176.195 159.776 170.396 153.143C161.056 142.464 136.449 117.466 135.043 117.232C131.551 116.646 127.464 133.454 126.112 153.962C124.337 180.919 127.932 206.294 135.447 219.84C138.534 225.404 140.771 227.853 148.215 233.805C150.202 235.394 152.091 236.945 152.412 237.255C152.735 237.562 153.92 238.444 155.046 239.213C156.173 239.982 157.461 240.917 157.907 241.296C158.353 241.675 159.649 242.724 160.784 243.633C165.906 247.722 169.978 251.774 172.205 254.994C178.813 264.541 184.873 282.239 184.827 291.845C184.813 294.935 184.419 297.269 183.383 300.42C181.158 307.181 169.242 332.152 162.745 343.665C158.574 351.058 157.278 352.918 155.079 354.672C152.926 356.389 152.452 356.377 148.96 354.534C146.016 352.982 141.759 350.166 138.869 347.858C133.587 343.647 129.744 337.956 128.673 332.76C128.177 330.358 128.295 329.099 129.341 325.621C129.467 325.2 131.658 320.563 134.21 315.315C137.334 308.89 139.157 304.879 139.793 303.033C143.517 292.229 143.301 284.675 138.822 269.131C132.224 246.236 123.848 229.71 110.253 212.76C102.926 203.631 93.3312 193.653 82.2045 183.605C81.1389 182.64 79.3945 181.062 78.3291 180.096C62.9049 166.094 59.5707 163.242 57.2181 162.03C55.0962 160.936 55.0643 160.959 53.2955 164.797C50.3276 171.237 46.5445 186.545 44.5227 200.294C42.3623 214.997 41.9039 242.361 43.5301 259.48C44.3707 268.311 46.9178 279.214 49.4938 285.023C53.3408 293.695 60.1838 302.544 67.2768 308.026C72.3261 311.929 89.4105 322.081 114.443 336.048C119.362 338.792 120.915 339.755 121.074 340.148C121.186 340.434 122.601 343.699 124.216 347.409C132.256 365.87 134.331 373.567 133.993 383.676C133.576 396.17 128.931 408.064 110.436 443.993L105.353 453.87C104.231 456.049 102.219 457.633 99.8384 458.212C97.2066 458.85 95.3612 459.108 93.6365 459.078C92.0223 459.048 90.4366 458.647 89.0014 457.908L88.3042 457.549C85.8712 456.295 85.2186 455.854 84.0989 454.681C82.7315 453.249 80.7991 450.742 79.826 449.132C79.3194 448.293 74.4753 439.186 74.3536 438.843C74.3244 438.762 74.8303 437.48 75.4773 435.995C83.1596 418.364 83.6079 417.241 84.9116 412.384C86.0657 408.085 86.5198 402.049 86.0491 397.285C83.6707 373.239 61.8257 338.483 34.8459 315.819C31.1904 312.748 18.9323 302.301 15.1013 298.991C13.6598 297.744 11.0309 295.465 9.25752 293.929C1.61908 287.299 -5.62531 281.748 -6.33652 281.982C-6.53238 282.043 -6.99788 282.456 -7.36672 282.893C-8.03261 283.68 -8.20515 283.998 -8.9714 285.856Z" fill="#F4F4FC"/>
</g>
</svg>
