<svg width="1224" height="373" viewBox="0 0 1224 373" fill="none" xmlns="http://www.w3.org/2000/svg">
<path d="M0.0598145 372.798V252.12H72.7189L139.696 334.87L206.674 252.12H282.088V372.798H227.68V301.943L170.344 372.798H109.049L54.4681 305.391V372.798H0.0598145ZM295.824 372.798V252.12H519.656V283.151H350.232V296.944H519.656V327.975H350.232V341.767H519.656V372.798H295.824ZM707.997 372.798V341.767H593.671C556.997 341.767 533.409 319.873 533.409 279.703V252.12H587.817V279.703C587.817 290.91 593.843 296.944 605.035 296.944H707.997V252.12H762.405V372.798H707.997ZM863.329 372.798V293.495H776.208V252.12H1005.2V293.495H917.737V372.798H863.329ZM1095.66 290.046L1070.52 321.08H1120.8L1095.66 290.046ZM1065.01 252.12H1126.31L1223.93 372.798H1162.64L1148.69 355.559H1042.63L1028.68 372.798H967.385L1065.01 252.12Z" fill="#4D5057" fill-opacity="0.51"/>
<path fill-rule="evenodd" clip-rule="evenodd" d="M704.279 0.746229C699.529 1.15235 688.867 4.74481 678.671 9.3741C657.467 19.002 642.648 32.6657 635.629 49.0576C633.981 52.907 633.173 56.0768 632.756 60.3435C632.52 62.7516 632.52 63.0141 632.769 65.6062C633.062 68.68 633.579 71.351 634.441 74.2487C635.367 77.3535 636.735 82.1396 636.919 82.9031C637.377 84.8072 636.971 85.6485 634.331 88.2687C629.918 92.6479 626.046 94.8976 618.921 97.2214C615.353 98.3845 612.31 99.0712 610.708 99.0733C609.253 99.0755 608.493 98.4743 607.533 96.5593C606.028 93.5564 601.947 89.0153 599.031 87.0977C597.183 85.8824 594.481 85.2416 591.758 85.3719C590.624 85.4263 590.327 85.5015 589.371 85.9779C588.77 86.2773 587.393 87.1819 586.309 87.9882C582.427 90.8773 580.874 91.759 578.976 92.1554C576.83 92.6031 575.149 91.9241 571.353 89.0738C564.806 84.1603 562.806 83.5115 559.472 85.2219C558.838 85.5469 556.806 86.9777 554.827 88.492L551.311 91.1837L522.957 91.3322C507.362 91.4139 477.498 91.5488 456.592 91.6318C379.97 91.9369 349.702 92.1722 333.738 92.5866C323.714 92.8467 323.968 92.8154 320.215 94.2522C319.095 94.6808 318.923 94.8091 317.269 96.4573C315.347 98.3721 314.452 99.5767 314.098 100.732C313.544 102.533 313.544 106.86 314.098 108.661C314.415 109.696 315.232 110.868 316.799 112.536C319.082 114.969 320.383 115.844 322.711 116.52C326.057 117.49 329.523 117.621 355.839 117.766C379.983 117.9 382.639 117.982 384.9 118.664C385.151 118.741 385.395 118.894 385.438 119.006C386.001 120.472 386.459 134.101 386.7 156.539C387.01 185.382 387.28 190.057 388.83 193.359C389.501 194.784 390.437 195.615 392.587 196.684C394.659 197.716 395.764 198.068 397.278 198.179C400.023 198.381 402.644 197.226 405.037 194.759C407.387 192.337 407.717 191.217 408.368 183.409C409.005 175.784 409.326 174.794 412.18 171.618C415.218 168.24 417.305 167.01 421.426 166.171C425.568 165.329 428.899 165.646 432.169 167.191C434.452 168.271 435.968 169.441 438.137 171.801C439.555 173.344 440.037 174.093 440.387 175.303C440.865 176.951 440.951 177.726 441.421 184.359C441.877 190.845 443.197 194.11 446.142 196.029C447.67 197.027 450.272 198.009 452.172 198.306C453.087 198.448 454.305 198.143 455.936 197.362C459.011 195.889 461.641 193.545 462.792 191.252C463.845 189.153 463.984 186.241 464.244 161.002C464.498 136.039 464.572 131.353 464.772 126.675C465.004 121.253 465.371 119.302 466.242 118.852C466.472 118.732 467.367 118.541 468.229 118.428C472.069 117.922 475.891 117.869 512.55 117.808L548.736 117.749L552.31 120.312C558.847 124.998 561.362 126.037 564.328 125.277C566.172 124.805 567.442 124.019 570.791 121.285C572.52 119.872 573.701 119.143 575.438 118.418C576.318 118.05 578.442 117.971 579.597 118.262C580.956 118.606 582.937 119.6 585.106 121.029C589.154 123.697 591.821 124.644 594.698 124.436C597.346 124.246 599.595 123.049 602.141 120.479C603.626 118.979 604.89 117.281 607.313 113.532C608.378 111.885 609.327 110.457 609.42 110.357C609.548 110.221 609.804 110.21 610.46 110.316C610.94 110.392 612.022 110.561 612.864 110.691C613.707 110.822 614.627 110.985 614.908 111.055C620 112.318 623.086 113.504 627.24 115.794C628.513 116.495 631.208 118.318 632.272 119.197C634.641 121.154 636.911 123.745 637.627 125.311C637.94 125.995 637.986 126.261 637.914 126.954C637.834 127.726 637.278 129.829 636.424 132.589C636.224 133.232 635.827 134.579 635.54 135.583C632.652 145.665 632.218 148.507 632.793 153.516C634.111 164.989 644.383 180.526 656.566 189.478C665.973 196.39 679.312 202.772 692.096 206.478C696.986 207.896 703.378 209.298 705.558 209.432C707.667 209.561 707.816 209.347 707.473 206.718C707.195 204.576 706.833 202.752 705.803 198.305C703.362 187.744 698.722 170.723 696.965 165.885C693.366 155.972 688.663 147.364 683.359 140.986C682.146 139.527 679.461 136.818 678.015 135.594C675.722 133.652 673.259 132.156 670.356 130.94C666.977 129.525 666.215 129.436 656.751 129.344L648.911 129.267L647.521 127.162C645.838 124.613 645.378 123.721 644.741 121.774C644.04 119.631 643.764 117.984 643.745 115.795C643.727 114.01 643.749 113.846 644.127 113.039C644.611 112.005 646.55 109.952 647.562 109.4C647.94 109.194 648.872 108.907 649.634 108.761C650.911 108.517 652.032 108.496 663.715 108.504C677.049 108.513 678.489 108.57 682.389 109.244C685.314 109.748 689.271 111.088 692.302 112.599C695.638 114.263 698.459 116.285 701.341 119.079C704.096 121.752 705.554 123.539 708.839 128.274L710.92 131.271V133.026C710.92 135.024 711.141 145.032 711.361 153.034C711.73 166.396 712.566 169.165 718.505 176.711C723.1 182.546 731.659 189.216 741.711 194.797C745.362 196.823 747.868 198.07 752.869 200.349C754.86 201.257 759.914 203.22 762.572 204.12C766.978 205.612 769.905 206.422 776.653 208.02C778.199 208.386 779.795 208.6 780.972 208.6C782.075 208.6 782.314 208.556 782.562 208.308C783.089 207.781 782.957 207.018 780.974 199.181C779.841 194.701 777.745 186.9 777.463 186.111C777.391 185.91 777.124 185.056 776.87 184.212C775.934 181.116 774.346 176.305 773.951 175.377C773.884 175.217 773.599 174.461 773.319 173.698C769.586 163.491 764.457 153.915 759.241 147.412C755.983 143.351 748.569 136.331 745.249 134.162C742.35 132.269 738.043 130.648 734.119 129.972C730.781 129.396 728.555 129.345 721.482 129.683C718.968 129.804 718.281 129.621 717.2 128.54C715.243 126.584 713.899 123.123 712.084 115.357C711.671 113.59 711.271 111.954 711.198 111.721C711.124 111.488 711.065 111.221 711.065 111.126C711.065 110.934 713.156 109.115 714.055 108.524C715.487 107.586 718.123 107.407 726.605 107.672C737.846 108.025 744.195 108.832 749.294 110.559C751.023 111.144 754.061 112.687 755.484 113.7C758.235 115.661 761.058 118.738 763.582 122.53C765.74 125.772 767.549 129.649 769.163 134.488C769.404 135.211 769.66 135.933 769.734 136.094C769.869 136.393 770.483 138.987 770.668 140.037C770.724 140.358 771.413 142.954 772.197 145.806C772.98 148.657 773.662 151.207 773.712 151.473C773.873 152.325 774.839 153.561 777.235 155.973C781.469 160.242 785.921 163.817 792.119 167.932C798.082 171.89 803.288 174.799 809.483 177.635C813.97 179.69 820.958 181.838 823.649 181.989C824.798 182.054 824.837 182.045 825.145 181.654C825.853 180.753 825.497 179.234 822.413 169.974C821.449 167.083 820.391 163.961 820.059 163.038C819.729 162.114 819.36 161.075 819.241 160.729C819.121 160.383 818.598 159.035 818.076 157.735C815.212 150.584 812.63 145.886 808.678 140.621C803.01 133.071 798.929 129.821 793.287 128.357C790.692 127.684 789.713 127.58 781.68 127.118C776.72 126.833 775.374 126.146 773.08 122.732C771.046 119.704 768.235 114.341 767.456 112.004C767.019 110.699 767.041 110.136 767.547 109.423C768.613 107.925 773.052 107.398 782.177 107.688C789.359 107.916 792.755 108.293 795.978 109.222C799.068 110.112 801.088 111.3 803.281 113.518C805.768 116.03 807.147 118.235 810.608 125.215C814.27 132.602 815.414 134.463 817.655 136.681C820.754 139.75 826.105 142.717 832.392 144.855C838.588 146.962 844.447 148.443 846.047 148.308C846.653 148.257 846.772 146.858 846.334 145.002C845.906 143.195 845.126 140.702 844.87 140.329C844.816 140.249 844.651 139.855 844.505 139.453C844.106 138.355 842.357 134.731 841.495 133.205C839.854 130.308 838.468 128.403 836.65 126.551C833.565 123.407 830.841 121.919 821.377 118.207C817.562 116.711 816.361 115.792 815.627 113.809C815.292 112.908 814.374 108.507 814.372 107.8C814.372 107.561 814.717 107.544 819.588 107.545C822.457 107.545 825.527 107.612 826.409 107.694C831.706 108.189 835.024 109.577 838.177 112.62C839.55 113.944 841.984 116.941 842.866 118.392C843.558 119.532 844.998 121.215 847.487 123.795C850.872 127.3 853.248 129.06 856.684 130.609C859.976 132.093 865.77 133.334 868.886 133.224C870.109 133.181 870.4 133.122 870.799 132.837C871.824 132.106 871.785 130.554 870.652 127.108C868.515 120.612 865.97 118.246 852.108 109.864C850.195 108.708 848.642 107.522 848.809 107.349C848.853 107.305 850.362 107.225 852.167 107.171C855.424 107.073 855.452 107.075 856.395 107.436C859.303 108.553 862.006 110.249 862.897 111.514C864.006 113.091 868.254 117.305 871.273 119.827C875.944 123.728 880.852 124.812 885.747 123.024C889.981 121.477 899.764 115.143 905.348 110.332C907.915 108.12 911.111 105.2 911.111 105.067C911.111 104.962 905.98 100.583 903.306 98.406C893.245 90.2161 888.396 87.2215 883.916 86.4321C882.383 86.1625 879.731 86.1666 878.037 86.4419C874.411 87.0303 871.466 88.5663 868.523 91.4026C867.003 92.8658 866.469 93.517 865.068 95.6038C864.543 96.3855 863.694 97.4504 863.183 97.97C862.397 98.7691 861.952 99.0614 860.308 99.8657C857.383 101.297 854.332 102.217 851.943 102.388C850.935 102.46 850.668 102.426 850.004 102.14C847.467 101.048 848.445 99.3408 853.548 95.9463C854.673 95.1992 856.938 93.7793 858.584 92.7912C865.62 88.5644 868.41 86.2401 869.835 83.4169C870.793 81.5177 871.179 78.4479 870.591 77.4183C870.141 76.6303 869.131 76.2354 867.399 76.1706C865.768 76.1097 862.606 76.4294 860.304 76.8882C855.181 77.9097 850.688 80.5656 847.504 84.4556C846.816 85.2964 845.137 87.3032 843.771 88.9151C842.405 90.5268 840.885 92.3431 840.39 92.9508C838.546 95.2203 835.228 98.0855 832.644 99.6385C829.871 101.306 826.7 102.177 821.959 102.575C818.648 102.853 814.302 103.139 814.244 103.082C814.111 102.955 815.299 97.5669 815.768 96.162C816.993 92.489 818.739 90.8003 824.001 88.1993C831.601 84.4441 833.612 83.1788 836.42 80.3875C839.248 77.5775 840.625 75.3709 843.845 68.4801C845.105 65.7834 845.65 64.4986 846.127 63.0937C846.974 60.5992 846.775 60.1404 844.857 60.1795C841.239 60.2539 830.077 63.5546 825.121 66.0154C818.585 69.2614 811.957 77.1165 809.292 84.7778C807.67 89.4372 806.335 91.4994 802.517 95.2261C797.062 100.555 794.258 101.528 781.76 102.433C776.829 102.791 771.849 102.817 770.14 102.496C768.579 102.202 767.74 101.725 767.378 100.922C767.026 100.148 767.028 99.683 767.386 98.2581C767.834 96.483 768.909 93.8758 770.448 90.8234C772.785 86.1938 774.998 83.0003 776.383 82.2533C777.448 81.6797 778.303 81.5799 783 81.4834C789.011 81.3599 791.869 80.9922 795.112 79.9258C799.233 78.5692 802.832 76.0702 805.876 72.4515C809.942 67.6165 814.066 60.9777 815.872 56.3593C818.78 48.9226 824.887 30.1382 824.644 29.3734C824.042 27.4721 814.667 29.7638 804.156 34.3811C790.34 40.4515 778.681 48.8047 773.886 56.0673C771.916 59.0506 771.274 60.804 770.225 66.0707C769.945 67.4762 769.658 68.8235 769.586 69.0644C769.517 69.3053 769.382 70.1268 769.289 70.8898C769.195 71.6528 769.061 72.54 768.987 72.8612C768.913 73.1825 768.724 74.1025 768.563 74.9058C767.845 78.5283 766.876 81.6147 765.849 83.5619C762.804 89.338 755.579 96.9441 750.806 99.4012C749.271 100.192 748.013 100.597 746.187 100.891C742.267 101.522 726.846 101.998 719.48 101.715C714.75 101.534 713.497 101.365 712.066 100.716C710.666 100.08 710.55 99.8394 710.572 97.6141C710.59 95.7382 710.898 92.8782 711.304 90.834C712.042 87.1001 713.882 83.705 716.184 81.8269C717.248 80.958 717.901 80.6923 719.893 80.3183C720.134 80.2731 722.992 80.1737 726.245 80.0974C730.228 80.0039 732.682 79.8819 733.759 79.7243C740.065 78.8006 743.755 76.7421 750.315 70.4845C759.979 61.2674 766.031 52.8037 770.961 41.6152C773.615 35.5871 776.11 28.203 778.249 20.0333C778.455 19.2501 778.792 17.9687 778.998 17.1856C781.999 5.8418 782.562 3.43459 782.562 1.94283C782.562 0.597273 782.542 0.587197 780.188 0.691758C776.238 0.86729 767.684 2.9239 760.352 5.46051C752.513 8.17397 738.832 15.0094 730.762 20.2439C726.599 22.9452 721.845 27.0364 719.624 29.827C716.307 33.9936 713.669 39.7072 712.763 44.6766C712.118 48.2143 711.45 59.3961 710.92 75.5455C710.815 78.7186 710.735 79.7456 710.581 79.9265C710.468 80.0567 709.211 81.6086 707.784 83.3758C700.687 92.1704 697.401 95.1979 692.304 97.638C686.005 100.655 678.923 101.398 656.39 101.407L648.044 101.411L646.635 99.7681C645.647 98.6139 645.048 97.7559 644.622 96.8839L644.018 95.6425V93.8171C644.018 92.2744 644.07 91.8334 644.366 90.9695C644.726 89.9147 645.475 88.2991 646.025 87.3958C646.312 86.9253 649.588 82.1468 649.727 81.9972C649.76 81.9618 650.524 81.8843 651.426 81.8252C662.128 81.1224 662.799 81.0572 665.539 80.4564C667.965 79.9248 671.072 78.594 673.314 77.1282C684.626 69.728 696.274 49.8086 700.617 30.4383C701.206 27.8137 703.254 18.9741 703.916 16.1999C704.166 15.1557 704.624 13.25 704.932 11.9649C706.268 6.42565 707.169 1.3625 706.872 1.06648C706.791 0.984119 706.468 0.857507 706.157 0.785364C705.597 0.654956 705.395 0.650722 704.279 0.746229Z" fill="#4D5057" fill-opacity="0.51"/>
</svg>
